<svg width="34" height="34" viewBox="0 0 34 34" fill="none" xmlns="http://www.w3.org/2000/svg">
<path d="M30.4583 15.4417V5.80834C30.4583 3.68334 29.5517 2.83334 27.2992 2.83334H21.5758C19.3233 2.83334 18.4167 3.68334 18.4167 5.80834V15.4417C18.4167 17.5667 19.3233 18.4167 21.5758 18.4167H27.2992C29.5517 18.4167 30.4583 17.5667 30.4583 15.4417ZM15.5833 18.5583V28.1917C15.5833 30.3167 14.6767 31.1667 12.4242 31.1667H6.70082C4.44832 31.1667 3.54166 30.3167 3.54166 28.1917V18.5583C3.54166 16.4333 4.44832 15.5833 6.70082 15.5833H12.4242C14.6767 15.5833 15.5833 16.4333 15.5833 18.5583ZM30.4583 28.1917V24.225C30.4583 22.1 29.5517 21.25 27.2992 21.25H21.5758C19.3233 21.25 18.4167 22.1 18.4167 24.225V28.1917C18.4167 30.3167 19.3233 31.1667 21.5758 31.1667H27.2992C29.5517 31.1667 30.4583 30.3167 30.4583 28.1917ZM15.5833 9.77501V5.80834C15.5833 3.68334 14.6767 2.83334 12.4242 2.83334H6.70082C4.44832 2.83334 3.54166 3.68334 3.54166 5.80834V9.77501C3.54166 11.9 4.44832 12.75 6.70082 12.75H12.4242C14.6767 12.75 15.5833 11.9 15.5833 9.77501Z" fill="white"/>
</svg>
